<?xml version="1.0" encoding="utf-8"?>
<!-- Generator: Adobe Illustrator 17.0.0, SVG Export Plug-In . SVG Version: 6.00 Build 0)  -->
<!DOCTYPE svg PUBLIC "-//W3C//DTD SVG 1.1//EN" "http://www.w3.org/Graphics/SVG/1.1/DTD/svg11.dtd">
<svg version="1.1" id="Layer_1" xmlns="http://www.w3.org/2000/svg" xmlns:xlink="http://www.w3.org/1999/xlink" x="0px" y="0px"
	 width="116px" height="26px" viewBox="0 0 116 26" enable-background="new 0 0 116 26" xml:space="preserve">
<g>
	<path fill-rule="evenodd" clip-rule="evenodd" fill="#E96124" d="M27.349,6.921c0,3.385-0.733,6.591-2.213,9.601
		c-8.855,18.201-31.74,7.672-22.441-8.023C3.712,6.79,5.201,5.521,7.154,4.683c1.952-0.838,5.257-1.351,9.927-1.538l10.268-0.138
		V6.921L27.349,6.921z M6.039,11.73L6.039,11.73c0,1.798,1.456,3.254,3.254,3.254c1.799,0,3.255-1.457,3.255-3.254
		c0-1.798-1.456-3.255-3.255-3.255C7.496,8.475,6.039,9.931,6.039,11.73z"/>
	<g>
		<g>
			<g>
				<path fill-rule="evenodd" clip-rule="evenodd" fill="#E96124" d="M51.196,16.03c-0.442-0.744-1.033-1.352-1.771-1.827
					c-0.742-0.476-1.725-0.885-2.952-1.231c-1.227-0.342-2.628-0.676-4.206-1.004c-1.134-0.221-1.942-0.504-2.42-0.85
					c-0.478-0.345-0.719-0.81-0.719-1.399c0-0.751,0.311-1.289,0.932-1.608c0.621-0.319,1.554-0.482,2.801-0.482
					c1.267,0,2.195,0.206,2.779,0.612c0.585,0.406,0.951,1.023,1.099,1.848L51.396,9.6c-0.364-1.771-1.276-3.124-2.739-4.061
					c-1.463-0.936-3.396-1.406-5.797-1.406c-2.729,0-4.836,0.542-6.324,1.623c-1.488,1.082-2.23,2.592-2.23,4.53
					c0,1.176,0.27,2.167,0.812,2.971c0.542,0.808,1.329,1.467,2.362,1.971c1.029,0.506,3.028,1.053,5.993,1.64
					c1.293,0.262,2.21,0.585,2.752,0.966c0.542,0.383,0.814,0.897,0.814,1.546c0,0.803-0.336,1.395-1.008,1.771
					c-0.67,0.379-1.741,0.566-3.209,0.566c-1.593,0-2.709-0.204-3.347-0.613c-0.642-0.404-1.093-1.1-1.353-2.08l-4.616,0.697
					c0.485,1.874,1.465,3.258,2.941,4.14c1.476,0.889,3.6,1.332,6.377,1.332c2.826,0,5.036-0.559,6.637-1.68
					c1.599-1.116,2.399-2.658,2.399-4.623C51.86,17.725,51.639,16.775,51.196,16.03z"/>
				<path fill-rule="evenodd" clip-rule="evenodd" fill="#E96124" d="M63.803,24.556v-3.254c-0.762,0.176-1.347,0.262-1.759,0.262
					c-0.785,0-1.366-0.232-1.738-0.704c-0.376-0.468-0.562-1.199-0.562-2.19V8.111h3.832V4.558h-3.832V-0.12h-3.291l-1.644,4.678
					h-2.822v3.553h2.558v11.974c0,1.714,0.417,2.994,1.252,3.839c0.836,0.844,2.025,1.267,3.574,1.267
					C61.027,25.192,62.505,24.977,63.803,24.556z"/>
				<path fill-rule="evenodd" clip-rule="evenodd" fill="#E96124" d="M75.802,16.49c0,0.885-0.192,1.723-0.579,2.51
					c-0.384,0.79-0.917,1.41-1.595,1.854c-0.679,0.448-1.425,0.672-2.245,0.672c-0.736,0-1.323-0.234-1.763-0.7
					c-0.441-0.463-0.662-1.178-0.662-2.135c0-0.746,0.134-1.34,0.4-1.788c0.266-0.446,0.655-0.778,1.165-0.997
					c0.51-0.219,1.374-0.353,2.594-0.402l2.684-0.036V16.49L75.802,16.49z M76.345,21.209L76.345,21.209h0.112
					c0.123,1.261,0.5,2.213,1.131,2.862c0.628,0.649,1.603,0.97,2.926,0.97c0.372,0,0.7-0.013,0.979-0.036
					c0.279-0.029,0.544-0.059,0.793-0.093c0.251-0.04,0.499-0.089,0.748-0.149c0.249-0.063,0.532-0.134,0.844-0.206V21.71
					c-0.376,0.077-0.761,0.113-1.159,0.113c-0.599,0-1.027-0.215-1.28-0.647c-0.256-0.434-0.383-1.216-0.383-2.356v-7.402
					c0-2.327-0.691-4.123-2.074-5.387c-1.382-1.263-3.349-1.899-5.903-1.899c-2.529,0-4.523,0.508-5.984,1.527
					c-1.464,1.017-2.365,2.509-2.699,4.476l5.476,0.261c0.11-1.02,0.393-1.75,0.848-2.196c0.451-0.443,1.165-0.664,2.137-0.664
					c1.042,0,1.795,0.327,2.252,0.981c0.459,0.655,0.691,1.654,0.691,3v1.046l-4.348,0.077c-2.591,0.028-4.564,0.585-5.927,1.682
					c-1.363,1.097-2.043,2.688-2.043,4.778c0,1.931,0.544,3.43,1.641,4.493c1.098,1.064,2.622,1.597,4.577,1.597
					C72.659,25.192,74.875,23.865,76.345,21.209z"/>
				<path fill-rule="evenodd" clip-rule="evenodd" fill="#E96124" d="M102.739,24.764v-12.85c0-2.544-0.574-4.474-1.721-5.797
					c-1.146-1.323-2.792-1.984-4.936-1.984c-1.486,0-2.765,0.349-3.836,1.048c-1.072,0.697-1.963,1.82-2.671,3.362h-0.076
					c0-0.383-0.034-1.082-0.094-2.103c-0.063-1.017-0.112-1.646-0.149-1.882h-5.012c0.036,0.548,0.07,1.167,0.102,1.858
					c0.029,0.691,0.046,1.578,0.046,2.662v15.685h5.255V13.915c0-1.71,0.39-3.109,1.17-4.198c0.778-1.091,1.805-1.64,3.077-1.64
					c2.408,0,3.611,1.778,3.611,5.331v11.355H102.739z"/>
				<path fill-rule="evenodd" clip-rule="evenodd" fill="#E96124" d="M115.487,24.556v-3.254c-0.761,0.176-1.347,0.262-1.757,0.262
					c-0.784,0-1.367-0.232-1.74-0.704c-0.374-0.468-0.562-1.199-0.562-2.19V8.111h3.832V4.558h-3.832V-0.12h-3.289l-1.646,4.678
					h-2.822v3.553h2.56v11.974c0,1.714,0.414,2.994,1.253,3.839c0.833,0.844,2.025,1.267,3.573,1.267
					C112.712,25.192,114.192,24.977,115.487,24.556z"/>
			</g>
			<circle fill-rule="evenodd" clip-rule="evenodd" fill="#E96124" cx="71.084" cy="17.747" r="0.851"/>
		</g>
	</g>
</g>
</svg>
